<svg xmlns="http://www.w3.org/2000/svg" viewBox="0 0 512 512">
  <defs>
    <linearGradient id="bg" x1="0" y1="0" x2="1" y2="1">
      <stop offset="0%" stop-color="#facc15"/>
      <stop offset="100%" stop-color="#f97316"/>
    </linearGradient>
    <filter id="shadow">
      <feDropShadow dx="0" dy="4" stdDeviation="6" flood-color="#000" flood-opacity="0.25"/>
    </filter>
  </defs>
  <rect width="512" height="512" rx="96" ry="96" fill="url(#bg)"/>
  <rect x="24" y="24" width="464" height="464" rx="80" ry="80" fill="none" stroke="#000" stroke-opacity="0.08" stroke-width="4"/>
  <!-- Gamepad silhouette accent -->
  <path d="M160 340 Q160 300 190 290 L210 280 Q230 270 256 270 Q282 270 302 280 L322 290 Q352 300 352 340 Q352 370 340 385 Q328 400 310 390 L290 375 Q275 365 256 365 Q237 365 222 375 L202 390 Q184 400 172 385 Q160 370 160 340Z" fill="#000" fill-opacity="0.10"/>
  <!-- G3 text -->
  <text x="256" y="260" font-family="'Arial Black', 'Impact', sans-serif" font-size="220" font-weight="900" fill="#030712" text-anchor="middle" dominant-baseline="central" filter="url(#shadow)">G3</text>
  <!-- Small "60" subscript -->
  <text x="390" y="330" font-family="'Arial Black', 'Impact', sans-serif" font-size="72" font-weight="900" fill="#030712" fill-opacity="0.6" text-anchor="middle" dominant-baseline="central">60</text>
</svg>
